<svg width="219" height="40" viewBox="0 0 219 40" fill="none" xmlns="http://www.w3.org/2000/svg">
<path d="M6.215 39C4.23633 39 2.823 38.6113 1.975 37.834C1.127 37.0567 0.703 35.9437 0.703 34.495C0.703 33.7883 0.756 32.587 0.862 30.891C0.968 29.1597 1.10933 27.1987 1.286 25.008C1.46267 22.8173 1.63933 20.503 1.816 18.065C1.99267 15.627 2.16933 13.3303 2.346 11.175C2.52267 9.01967 2.664 7.12933 2.77 5.504C2.876 3.87866 2.929 2.76566 2.929 2.165C2.929 1.635 3.21167 1.37 3.777 1.37H6.692C8.67067 1.37 10.031 1.75866 10.773 2.536C11.5503 3.278 11.939 4.391 11.939 5.875C11.939 6.05167 11.9213 6.21067 11.886 6.352C11.886 6.49333 11.886 6.65233 11.886 6.829L10.137 31.58H19.677C19.889 31.58 20.0833 31.6507 20.26 31.792C20.4367 31.898 20.525 32.0747 20.525 32.322L20.313 35.449C20.2423 36.509 19.942 37.3747 19.412 38.046C18.9173 38.682 17.875 39 16.285 39H6.215ZM42.4972 0.786999C45.0766 0.786999 47.2849 1.158 49.1222 1.9C50.9596 2.60667 52.4612 3.66667 53.6272 5.08C54.7932 6.458 55.6412 8.154 56.1712 10.168C56.7012 12.1467 56.9662 14.408 56.9662 16.952C56.9662 18.3653 56.8602 19.9023 56.6482 21.563C56.4716 23.2237 56.1182 24.902 55.5882 26.598C55.0936 28.2587 54.4046 29.8663 53.5212 31.421C52.6379 32.9757 51.4896 34.3537 50.0762 35.555C48.6982 36.7563 47.0376 37.728 45.0942 38.47C43.1509 39.1767 40.8542 39.53 38.2042 39.53C35.2716 39.53 32.8336 39.0883 30.8902 38.205C28.9822 37.3217 27.4452 36.138 26.2792 34.654C25.1486 33.1347 24.3359 31.3503 23.8412 29.301C23.3819 27.2517 23.1522 25.061 23.1522 22.729C23.1522 19.973 23.4702 17.2877 24.1062 14.673C24.7422 12.023 25.8022 9.67333 27.2862 7.624C28.8056 5.57467 30.8019 3.93166 33.2752 2.695C35.7486 1.423 38.8226 0.786999 42.4972 0.786999ZM41.3842 9.002C40.1476 9.002 39.0699 9.23166 38.1512 9.691C37.2679 10.115 36.5082 10.698 35.8722 11.44C35.2716 12.182 34.7769 13.0123 34.3882 13.931C34.0349 14.8497 33.7522 15.8037 33.5402 16.793C33.3282 17.747 33.1869 18.6833 33.1162 19.602C33.0456 20.4853 33.0102 21.2803 33.0102 21.987C33.0102 25.2023 33.5402 27.552 34.6002 29.036C35.6956 30.52 37.2326 31.262 39.2112 31.262C40.8366 31.262 42.1616 30.7497 43.1862 29.725C44.2109 28.665 45.0059 27.4107 45.5712 25.962C46.1719 24.478 46.5782 22.9587 46.7902 21.404C47.0022 19.814 47.1082 18.4713 47.1082 17.376C47.1082 14.7967 46.6666 12.765 45.7832 11.281C44.8999 9.76167 43.4336 9.002 41.3842 9.002ZM77.3149 31.262C78.7636 31.262 79.9826 31.05 80.9719 30.626C81.9966 30.202 82.8622 29.725 83.5689 29.195C84.2756 28.665 84.8939 28.188 85.4239 27.764C85.9892 27.34 86.5546 27.128 87.1199 27.128C87.8266 27.128 88.1799 27.658 88.1799 28.718C88.1799 29.2833 88.1093 29.9723 87.9679 30.785C87.8266 31.5623 87.6322 32.4457 87.3849 33.435C87.2436 34.0357 86.8902 34.6893 86.3249 35.396C85.7949 36.1027 85.0529 36.774 84.0989 37.41C83.1449 38.0107 81.9612 38.523 80.5479 38.947C79.1699 39.3357 77.5799 39.53 75.7779 39.53C73.9759 39.53 72.1739 39.265 70.3719 38.735C68.5699 38.205 66.9622 37.304 65.5489 36.032C64.1356 34.76 62.9872 33.0463 62.1039 30.891C61.2206 28.7357 60.7789 26.0327 60.7789 22.782C60.7789 21.616 60.8496 20.2733 60.9909 18.754C61.1676 17.1993 61.4856 15.6093 61.9449 13.984C62.4042 12.3587 63.0402 10.7687 63.8529 9.214C64.7009 7.624 65.7786 6.21066 67.0859 4.974C68.3932 3.73733 69.9832 2.748 71.8559 2.006C73.7639 1.22867 76.0252 0.839998 78.6399 0.839998C80.7246 0.839998 82.5266 1.08733 84.0459 1.582C85.6006 2.07667 86.8726 2.76566 87.8619 3.649C88.8866 4.497 89.6286 5.504 90.0879 6.67C90.5826 7.836 90.8299 9.07267 90.8299 10.38C90.8299 12.6413 90.1586 14.302 88.8159 15.362C87.5086 16.3867 85.6359 16.899 83.1979 16.899C82.4206 16.899 81.9259 16.846 81.7139 16.74C81.5372 16.5987 81.4489 16.3337 81.4489 15.945C81.4136 14.7437 81.3782 13.7013 81.3429 12.818C81.3076 11.9347 81.1839 11.2103 80.9719 10.645C80.7599 10.0443 80.4242 9.62033 79.9649 9.373C79.5409 9.09033 78.9402 8.949 78.1629 8.949C77.0322 8.949 76.0606 9.19633 75.2479 9.691C74.4706 10.1503 73.7992 10.7687 73.2339 11.546C72.7039 12.288 72.2622 13.136 71.9089 14.09C71.5909 15.044 71.3259 16.0157 71.1139 17.005C70.9372 17.9943 70.8136 18.9483 70.7429 19.867C70.7076 20.7857 70.6899 21.5807 70.6899 22.252C70.6899 25.5027 71.2199 27.817 72.2799 29.195C73.3752 30.573 75.0536 31.262 77.3149 31.262ZM110.459 1.37C111.342 1.37 112.066 1.54666 112.632 1.9C113.232 2.218 113.727 2.65966 114.116 3.225C114.504 3.755 114.822 4.37333 115.07 5.08C115.317 5.78667 115.529 6.511 115.706 7.253C117.119 12.977 118.285 17.694 119.204 21.404C120.122 25.114 120.847 28.1173 121.377 30.414C121.907 32.6753 122.278 34.3537 122.49 35.449C122.702 36.5443 122.808 37.304 122.808 37.728C122.808 38.2227 122.684 38.5583 122.437 38.735C122.225 38.9117 121.871 39 121.377 39H118.674C117.154 39 115.935 38.8233 115.017 38.47C114.133 38.0813 113.444 37.5337 112.95 36.827C112.49 36.1203 112.155 35.2723 111.943 34.283C111.731 33.2583 111.554 32.11 111.413 30.838H102.191L100.442 38.152C100.265 38.7173 99.8585 39 99.2225 39H96.4135C95.8482 39 95.2652 38.947 94.6645 38.841C94.0639 38.6997 93.5162 38.4877 93.0215 38.205C92.5622 37.9223 92.1735 37.569 91.8555 37.145C91.5375 36.6857 91.3785 36.138 91.3785 35.502C91.3785 34.7247 91.6259 33.4527 92.1205 31.686C92.6152 29.9193 93.2335 27.923 93.9755 25.697C94.7529 23.4357 95.6009 21.086 96.5195 18.648C97.4735 16.1747 98.3922 13.8427 99.2755 11.652C100.159 9.46133 100.954 7.53567 101.661 5.875C102.403 4.21433 102.968 3.04833 103.357 2.377C103.639 1.88233 103.887 1.59966 104.099 1.529C104.346 1.423 104.788 1.37 105.424 1.37H110.459ZM104.099 23.153H110.194L107.968 9.161L104.099 23.153ZM132.09 39C130.111 39 128.698 38.6113 127.85 37.834C127.002 37.0567 126.578 35.9437 126.578 34.495C126.578 33.7883 126.631 32.587 126.737 30.891C126.843 29.1597 126.984 27.1987 127.161 25.008C127.338 22.8173 127.514 20.503 127.691 18.065C127.868 15.627 128.044 13.3303 128.221 11.175C128.398 9.01967 128.539 7.12933 128.645 5.504C128.751 3.87866 128.804 2.76566 128.804 2.165C128.804 1.635 129.087 1.37 129.652 1.37H132.567C134.546 1.37 135.906 1.75866 136.648 2.536C137.425 3.278 137.814 4.391 137.814 5.875C137.814 6.05167 137.796 6.21067 137.761 6.352C137.761 6.49333 137.761 6.65233 137.761 6.829L136.012 31.58H145.552C145.764 31.58 145.958 31.6507 146.135 31.792C146.312 31.898 146.4 32.0747 146.4 32.322L146.188 35.449C146.117 36.509 145.817 37.3747 145.287 38.046C144.792 38.682 143.75 39 142.16 39H132.09ZM155.847 39C153.868 39 152.455 38.6113 151.607 37.834C150.759 37.0567 150.335 35.9437 150.335 34.495C150.335 33.7883 150.388 32.587 150.494 30.891C150.6 29.1597 150.741 27.1987 150.918 25.008C151.095 22.8173 151.271 20.503 151.448 18.065C151.625 15.627 151.801 13.3303 151.978 11.175C152.155 9.01967 152.296 7.12933 152.402 5.504C152.508 3.87866 152.561 2.76566 152.561 2.165C152.561 1.635 152.844 1.37 153.409 1.37H156.324C158.479 1.37 159.928 1.82933 160.67 2.748C161.412 3.66666 161.783 5.027 161.783 6.829C161.783 7.00566 161.748 7.571 161.677 8.525C161.642 9.479 161.571 10.6803 161.465 12.129C161.359 13.5777 161.235 15.203 161.094 17.005C160.988 18.7717 160.864 20.5913 160.723 22.464C160.617 24.3367 160.493 26.174 160.352 27.976C160.246 29.7427 160.14 31.3503 160.034 32.799C159.928 34.2477 159.84 35.4667 159.769 36.456C159.698 37.41 159.645 37.993 159.61 38.205C159.575 38.4877 159.504 38.6997 159.398 38.841C159.292 38.947 159.08 39 158.762 39H155.847ZM165.252 39C164.863 39 164.669 38.8057 164.669 38.417L164.828 35.555C164.863 35.237 164.916 34.8483 164.987 34.389C165.058 33.8943 165.217 33.488 165.464 33.17C166.065 32.0747 166.789 30.891 167.637 29.619C168.485 28.347 169.51 26.7923 170.711 24.955C171.912 23.1177 173.308 20.9093 174.898 18.33C176.523 15.7153 178.396 12.5353 180.516 8.79H168.432C168.149 8.79 167.973 8.737 167.902 8.631C167.867 8.525 167.849 8.33066 167.849 8.048L168.008 5.08C168.043 4.62066 168.096 4.179 168.167 3.755C168.273 3.29567 168.45 2.88933 168.697 2.536C168.98 2.18267 169.368 1.9 169.863 1.688C170.358 1.476 171.011 1.37 171.824 1.37H192.07C192.282 1.37 192.476 1.423 192.653 1.529C192.83 1.635 192.918 1.82933 192.918 2.112L192.706 4.974C192.635 5.89266 192.423 6.65233 192.07 7.253C191.964 7.42966 191.452 8.27767 190.533 9.797C189.614 11.281 188.448 13.1713 187.035 15.468C185.622 17.7647 184.032 20.3263 182.265 23.153C180.534 25.9797 178.785 28.7887 177.018 31.58H190.48C190.692 31.58 190.886 31.633 191.063 31.739C191.24 31.845 191.328 32.0393 191.328 32.322L191.116 35.449C191.045 36.509 190.745 37.3747 190.215 38.046C189.72 38.682 188.678 39 187.088 39H165.252ZM201.86 39C199.881 39 198.468 38.6113 197.62 37.834C196.772 37.0567 196.348 35.9437 196.348 34.495C196.348 33.7883 196.401 32.587 196.507 30.891C196.613 29.1597 196.754 27.1987 196.931 25.008C197.107 22.8173 197.284 20.503 197.461 18.065C197.637 15.627 197.814 13.3303 197.991 11.175C198.167 9.01967 198.309 7.12933 198.415 5.504C198.521 3.87866 198.574 2.76566 198.574 2.165C198.574 1.635 198.856 1.37 199.422 1.37H218.078C218.29 1.37 218.484 1.423 218.661 1.529C218.837 1.635 218.926 1.82933 218.926 2.112L218.714 5.239C218.643 6.299 218.343 7.16466 217.813 7.836C217.318 8.472 216.276 8.79 214.686 8.79H207.372L206.842 16.263H214.368C214.58 16.263 214.774 16.316 214.951 16.422C215.127 16.528 215.216 16.7223 215.216 17.005L215.004 20.132C214.933 21.192 214.633 22.0577 214.103 22.729C213.608 23.365 212.566 23.683 210.976 23.683H206.365L205.782 31.58H217.442C217.654 31.58 217.848 31.6507 218.025 31.792C218.201 31.898 218.29 32.0747 218.29 32.322L218.078 35.449C218.007 36.509 217.707 37.3747 217.177 38.046C216.682 38.682 215.64 39 214.05 39H201.86Z" fill="white"/>
</svg>